%TF.GenerationSoftware,KiCad,Pcbnew,8.0.5*%
%TF.CreationDate,2025-05-13T06:25:59+01:00*%
%TF.ProjectId,pico1541 v0.1,7069636f-3135-4343-9120-76302e312e6b,rev?*%
%TF.SameCoordinates,Original*%
%TF.FileFunction,Soldermask,Bot*%
%TF.FilePolarity,Negative*%
%FSLAX46Y46*%
G04 Gerber Fmt 4.6, Leading zero omitted, Abs format (unit mm)*
G04 Created by KiCad (PCBNEW 8.0.5) date 2025-05-13 06:25:59*
%MOMM*%
%LPD*%
G01*
G04 APERTURE LIST*
G04 Aperture macros list*
%AMRoundRect*
0 Rectangle with rounded corners*
0 $1 Rounding radius*
0 $2 $3 $4 $5 $6 $7 $8 $9 X,Y pos of 4 corners*
0 Add a 4 corners polygon primitive as box body*
4,1,4,$2,$3,$4,$5,$6,$7,$8,$9,$2,$3,0*
0 Add four circle primitives for the rounded corners*
1,1,$1+$1,$2,$3*
1,1,$1+$1,$4,$5*
1,1,$1+$1,$6,$7*
1,1,$1+$1,$8,$9*
0 Add four rect primitives between the rounded corners*
20,1,$1+$1,$2,$3,$4,$5,0*
20,1,$1+$1,$4,$5,$6,$7,0*
20,1,$1+$1,$6,$7,$8,$9,0*
20,1,$1+$1,$8,$9,$2,$3,0*%
G04 Aperture macros list end*
%ADD10R,1.700000X1.700000*%
%ADD11O,1.700000X1.700000*%
%ADD12C,3.000000*%
%ADD13R,2.000000X2.000000*%
%ADD14C,2.000000*%
%ADD15RoundRect,0.500000X-0.500000X-0.500000X0.500000X-0.500000X0.500000X0.500000X-0.500000X0.500000X0*%
%ADD16C,2.500000*%
G04 APERTURE END LIST*
D10*
%TO.C,J6*%
X163195000Y-95859600D03*
D11*
X163195000Y-98399600D03*
X160655000Y-95859600D03*
X160655000Y-98399600D03*
X158115000Y-95859600D03*
X158115000Y-98399600D03*
X155575000Y-95859600D03*
X155575000Y-98399600D03*
X153035000Y-95859600D03*
X153035000Y-98399600D03*
X150495000Y-95859600D03*
X150495000Y-98399600D03*
X147955000Y-95859600D03*
X147955000Y-98399600D03*
X145415000Y-95859600D03*
X145415000Y-98399600D03*
X142875000Y-95859600D03*
X142875000Y-98399600D03*
X140335000Y-95859600D03*
X140335000Y-98399600D03*
X137795000Y-95859600D03*
X137795000Y-98399600D03*
X135255000Y-95859600D03*
X135255000Y-98399600D03*
X132715000Y-95859600D03*
X132715000Y-98399600D03*
X130175000Y-95859600D03*
X130175000Y-98399600D03*
X127635000Y-95859600D03*
X127635000Y-98399600D03*
%TD*%
D12*
%TO.C,U1*%
X123446000Y-77605000D03*
X123446000Y-89005000D03*
X170446000Y-77605000D03*
X170446000Y-89005000D03*
D13*
X122816000Y-92195000D03*
D14*
X125356000Y-92195000D03*
D15*
X127896000Y-92195000D03*
D14*
X130436000Y-92195000D03*
X132976000Y-92195000D03*
X135516000Y-92195000D03*
X138056000Y-92195000D03*
D15*
X140596000Y-92195000D03*
D14*
X143136000Y-92195000D03*
X145676000Y-92195000D03*
X148216000Y-92195000D03*
X150756000Y-92195000D03*
D15*
X153296000Y-92195000D03*
D14*
X155836000Y-92195000D03*
X158376000Y-92195000D03*
X160916000Y-92195000D03*
X163456000Y-92195000D03*
D15*
X165996000Y-92195000D03*
D14*
X168536000Y-92195000D03*
X171076000Y-92195000D03*
X171076000Y-74415000D03*
X168536000Y-74415000D03*
D15*
X165996000Y-74415000D03*
D14*
X163456000Y-74415000D03*
X160916000Y-74415000D03*
X158376000Y-74415000D03*
X155836000Y-74415000D03*
D15*
X153296000Y-74415000D03*
D14*
X150756000Y-74415000D03*
X148216000Y-74415000D03*
X145676000Y-74415000D03*
X143136000Y-74415000D03*
D15*
X140596000Y-74415000D03*
D14*
X138056000Y-74415000D03*
X135516000Y-74415000D03*
X132976000Y-74415000D03*
X130436000Y-74415000D03*
D15*
X127896000Y-74415000D03*
D14*
X125356000Y-74415000D03*
X122816000Y-74415000D03*
%TD*%
D10*
%TO.C,J5*%
X189865000Y-95859600D03*
D11*
X189865000Y-98399600D03*
X187325000Y-95859600D03*
X187325000Y-98399600D03*
X184785000Y-95859600D03*
X184785000Y-98399600D03*
X182245000Y-95859600D03*
X182245000Y-98399600D03*
X179705000Y-95859600D03*
X179705000Y-98399600D03*
X177165000Y-95859600D03*
X177165000Y-98399600D03*
X174625000Y-95859600D03*
X174625000Y-98399600D03*
X172085000Y-95859600D03*
X172085000Y-98399600D03*
X169545000Y-95859600D03*
X169545000Y-98399600D03*
X167005000Y-95859600D03*
X167005000Y-98399600D03*
%TD*%
D16*
%TO.C,J4*%
X179295000Y-75812000D03*
X176795000Y-78312000D03*
X179295000Y-83312000D03*
X176795000Y-88312000D03*
X179295000Y-90812000D03*
X174295000Y-83312000D03*
X189195000Y-78312000D03*
X189195000Y-88312000D03*
%TD*%
M02*
