%TF.GenerationSoftware,KiCad,Pcbnew,8.0.5*%
%TF.CreationDate,2025-05-13T06:25:59+01:00*%
%TF.ProjectId,pico1541 v0.1,7069636f-3135-4343-9120-76302e312e6b,rev?*%
%TF.SameCoordinates,Original*%
%TF.FileFunction,Paste,Top*%
%TF.FilePolarity,Positive*%
%FSLAX46Y46*%
G04 Gerber Fmt 4.6, Leading zero omitted, Abs format (unit mm)*
G04 Created by KiCad (PCBNEW 8.0.5) date 2025-05-13 06:25:59*
%MOMM*%
%LPD*%
G01*
G04 APERTURE LIST*
G04 Aperture macros list*
%AMRoundRect*
0 Rectangle with rounded corners*
0 $1 Rounding radius*
0 $2 $3 $4 $5 $6 $7 $8 $9 X,Y pos of 4 corners*
0 Add a 4 corners polygon primitive as box body*
4,1,4,$2,$3,$4,$5,$6,$7,$8,$9,$2,$3,0*
0 Add four circle primitives for the rounded corners*
1,1,$1+$1,$2,$3*
1,1,$1+$1,$4,$5*
1,1,$1+$1,$6,$7*
1,1,$1+$1,$8,$9*
0 Add four rect primitives between the rounded corners*
20,1,$1+$1,$2,$3,$4,$5,0*
20,1,$1+$1,$4,$5,$6,$7,0*
20,1,$1+$1,$6,$7,$8,$9,0*
20,1,$1+$1,$8,$9,$2,$3,0*%
G04 Aperture macros list end*
%ADD10RoundRect,0.100000X-0.637500X-0.100000X0.637500X-0.100000X0.637500X0.100000X-0.637500X0.100000X0*%
%ADD11RoundRect,0.237500X0.250000X0.237500X-0.250000X0.237500X-0.250000X-0.237500X0.250000X-0.237500X0*%
%ADD12RoundRect,0.237500X-0.250000X-0.237500X0.250000X-0.237500X0.250000X0.237500X-0.250000X0.237500X0*%
%ADD13RoundRect,0.237500X0.237500X-0.250000X0.237500X0.250000X-0.237500X0.250000X-0.237500X-0.250000X0*%
%ADD14RoundRect,0.150000X0.150000X-0.825000X0.150000X0.825000X-0.150000X0.825000X-0.150000X-0.825000X0*%
%ADD15RoundRect,0.237500X-0.237500X0.250000X-0.237500X-0.250000X0.237500X-0.250000X0.237500X0.250000X0*%
%ADD16RoundRect,0.225000X-0.225000X-0.250000X0.225000X-0.250000X0.225000X0.250000X-0.225000X0.250000X0*%
%ADD17RoundRect,0.225000X0.225000X0.250000X-0.225000X0.250000X-0.225000X-0.250000X0.225000X-0.250000X0*%
%ADD18RoundRect,0.225000X0.250000X-0.225000X0.250000X0.225000X-0.250000X0.225000X-0.250000X-0.225000X0*%
%ADD19RoundRect,0.218750X-0.256250X0.218750X-0.256250X-0.218750X0.256250X-0.218750X0.256250X0.218750X0*%
G04 APERTURE END LIST*
D10*
%TO.C,U4*%
X132580000Y-80387000D03*
X132580000Y-81037000D03*
X132580000Y-81687000D03*
X132580000Y-82337000D03*
X132580000Y-82987000D03*
X132580000Y-83637000D03*
X132580000Y-84287000D03*
X132580000Y-84937000D03*
X132580000Y-85587000D03*
X132580000Y-86237000D03*
X138305000Y-86237000D03*
X138305000Y-85587000D03*
X138305000Y-84937000D03*
X138305000Y-84287000D03*
X138305000Y-83637000D03*
X138305000Y-82987000D03*
X138305000Y-82337000D03*
X138305000Y-81687000D03*
X138305000Y-81037000D03*
X138305000Y-80387000D03*
%TD*%
%TO.C,U3*%
X160775500Y-80387000D03*
X160775500Y-81037000D03*
X160775500Y-81687000D03*
X160775500Y-82337000D03*
X160775500Y-82987000D03*
X160775500Y-83637000D03*
X160775500Y-84287000D03*
X160775500Y-84937000D03*
X160775500Y-85587000D03*
X160775500Y-86237000D03*
X166500500Y-86237000D03*
X166500500Y-85587000D03*
X166500500Y-84937000D03*
X166500500Y-84287000D03*
X166500500Y-83637000D03*
X166500500Y-82987000D03*
X166500500Y-82337000D03*
X166500500Y-81687000D03*
X166500500Y-81037000D03*
X166500500Y-80387000D03*
%TD*%
D11*
%TO.C,R4*%
X128143000Y-85090000D03*
X126318000Y-85090000D03*
%TD*%
D12*
%TO.C,R3*%
X126318000Y-83439000D03*
X128143000Y-83439000D03*
%TD*%
D13*
%TO.C,R9*%
X155575000Y-80160500D03*
X155575000Y-78335500D03*
%TD*%
D14*
%TO.C,U2*%
X147574000Y-87692000D03*
X148844000Y-87692000D03*
X150114000Y-87692000D03*
X151384000Y-87692000D03*
X152654000Y-87692000D03*
X153924000Y-87692000D03*
X155194000Y-87692000D03*
X155194000Y-82742000D03*
X153924000Y-82742000D03*
X152654000Y-82742000D03*
X151384000Y-82742000D03*
X150114000Y-82742000D03*
X148844000Y-82742000D03*
X147574000Y-82742000D03*
%TD*%
D13*
%TO.C,R8*%
X153924000Y-80160500D03*
X153924000Y-78335500D03*
%TD*%
%TO.C,R7*%
X152273000Y-80160500D03*
X152273000Y-78335500D03*
%TD*%
D15*
%TO.C,R1*%
X125030500Y-96242500D03*
X125030500Y-98067500D03*
%TD*%
D16*
%TO.C,C4*%
X161339000Y-78994000D03*
X162889000Y-78994000D03*
%TD*%
D17*
%TO.C,C2*%
X137741500Y-78994000D03*
X136191500Y-78994000D03*
%TD*%
D18*
%TO.C,C3*%
X147320000Y-79999500D03*
X147320000Y-78449500D03*
%TD*%
D19*
%TO.C,D1*%
X123506500Y-96367500D03*
X123506500Y-97942500D03*
%TD*%
D12*
%TO.C,R2*%
X126318000Y-81788000D03*
X128143000Y-81788000D03*
%TD*%
D16*
%TO.C,C1*%
X133143500Y-78994000D03*
X134693500Y-78994000D03*
%TD*%
D17*
%TO.C,C5*%
X165937000Y-78994000D03*
X164387000Y-78994000D03*
%TD*%
D13*
%TO.C,R6*%
X150622000Y-80160500D03*
X150622000Y-78335500D03*
%TD*%
%TO.C,R5*%
X148971000Y-80160500D03*
X148971000Y-78335500D03*
%TD*%
M02*
