%TF.GenerationSoftware,KiCad,Pcbnew,8.0.5*%
%TF.CreationDate,2025-05-13T06:25:59+01:00*%
%TF.ProjectId,pico1541 v0.1,7069636f-3135-4343-9120-76302e312e6b,rev?*%
%TF.SameCoordinates,Original*%
%TF.FileFunction,Legend,Top*%
%TF.FilePolarity,Positive*%
%FSLAX46Y46*%
G04 Gerber Fmt 4.6, Leading zero omitted, Abs format (unit mm)*
G04 Created by KiCad (PCBNEW 8.0.5) date 2025-05-13 06:25:59*
%MOMM*%
%LPD*%
G01*
G04 APERTURE LIST*
%ADD10C,0.240000*%
%ADD11C,0.100000*%
%ADD12C,0.120000*%
G04 APERTURE END LIST*
D10*
X123828337Y-79426286D02*
X122628337Y-79426286D01*
X123771194Y-79426286D02*
X123828337Y-79540572D01*
X123828337Y-79540572D02*
X123828337Y-79769143D01*
X123828337Y-79769143D02*
X123771194Y-79883429D01*
X123771194Y-79883429D02*
X123714051Y-79940572D01*
X123714051Y-79940572D02*
X123599765Y-79997714D01*
X123599765Y-79997714D02*
X123256908Y-79997714D01*
X123256908Y-79997714D02*
X123142622Y-79940572D01*
X123142622Y-79940572D02*
X123085480Y-79883429D01*
X123085480Y-79883429D02*
X123028337Y-79769143D01*
X123028337Y-79769143D02*
X123028337Y-79540572D01*
X123028337Y-79540572D02*
X123085480Y-79426286D01*
X123028337Y-80512000D02*
X123828337Y-80512000D01*
X124228337Y-80512000D02*
X124171194Y-80454857D01*
X124171194Y-80454857D02*
X124114051Y-80512000D01*
X124114051Y-80512000D02*
X124171194Y-80569143D01*
X124171194Y-80569143D02*
X124228337Y-80512000D01*
X124228337Y-80512000D02*
X124114051Y-80512000D01*
X123085480Y-81597715D02*
X123028337Y-81483429D01*
X123028337Y-81483429D02*
X123028337Y-81254857D01*
X123028337Y-81254857D02*
X123085480Y-81140572D01*
X123085480Y-81140572D02*
X123142622Y-81083429D01*
X123142622Y-81083429D02*
X123256908Y-81026286D01*
X123256908Y-81026286D02*
X123599765Y-81026286D01*
X123599765Y-81026286D02*
X123714051Y-81083429D01*
X123714051Y-81083429D02*
X123771194Y-81140572D01*
X123771194Y-81140572D02*
X123828337Y-81254857D01*
X123828337Y-81254857D02*
X123828337Y-81483429D01*
X123828337Y-81483429D02*
X123771194Y-81597715D01*
X123028337Y-82283428D02*
X123085480Y-82169143D01*
X123085480Y-82169143D02*
X123142622Y-82112000D01*
X123142622Y-82112000D02*
X123256908Y-82054857D01*
X123256908Y-82054857D02*
X123599765Y-82054857D01*
X123599765Y-82054857D02*
X123714051Y-82112000D01*
X123714051Y-82112000D02*
X123771194Y-82169143D01*
X123771194Y-82169143D02*
X123828337Y-82283428D01*
X123828337Y-82283428D02*
X123828337Y-82454857D01*
X123828337Y-82454857D02*
X123771194Y-82569143D01*
X123771194Y-82569143D02*
X123714051Y-82626286D01*
X123714051Y-82626286D02*
X123599765Y-82683428D01*
X123599765Y-82683428D02*
X123256908Y-82683428D01*
X123256908Y-82683428D02*
X123142622Y-82626286D01*
X123142622Y-82626286D02*
X123085480Y-82569143D01*
X123085480Y-82569143D02*
X123028337Y-82454857D01*
X123028337Y-82454857D02*
X123028337Y-82283428D01*
X123028337Y-83826285D02*
X123028337Y-83140571D01*
X123028337Y-83483428D02*
X124228337Y-83483428D01*
X124228337Y-83483428D02*
X124056908Y-83369142D01*
X124056908Y-83369142D02*
X123942622Y-83254857D01*
X123942622Y-83254857D02*
X123885480Y-83140571D01*
X124228337Y-84911999D02*
X124228337Y-84340571D01*
X124228337Y-84340571D02*
X123656908Y-84283428D01*
X123656908Y-84283428D02*
X123714051Y-84340571D01*
X123714051Y-84340571D02*
X123771194Y-84454857D01*
X123771194Y-84454857D02*
X123771194Y-84740571D01*
X123771194Y-84740571D02*
X123714051Y-84854857D01*
X123714051Y-84854857D02*
X123656908Y-84911999D01*
X123656908Y-84911999D02*
X123542622Y-84969142D01*
X123542622Y-84969142D02*
X123256908Y-84969142D01*
X123256908Y-84969142D02*
X123142622Y-84911999D01*
X123142622Y-84911999D02*
X123085480Y-84854857D01*
X123085480Y-84854857D02*
X123028337Y-84740571D01*
X123028337Y-84740571D02*
X123028337Y-84454857D01*
X123028337Y-84454857D02*
X123085480Y-84340571D01*
X123085480Y-84340571D02*
X123142622Y-84283428D01*
X123828337Y-85997714D02*
X123028337Y-85997714D01*
X124285480Y-85711999D02*
X123428337Y-85426285D01*
X123428337Y-85426285D02*
X123428337Y-86169142D01*
X123028337Y-87254856D02*
X123028337Y-86569142D01*
X123028337Y-86911999D02*
X124228337Y-86911999D01*
X124228337Y-86911999D02*
X124056908Y-86797713D01*
X124056908Y-86797713D02*
X123942622Y-86683428D01*
X123942622Y-86683428D02*
X123885480Y-86569142D01*
D11*
X134909166Y-86994633D02*
X134909166Y-87561300D01*
X134909166Y-87561300D02*
X134942500Y-87627966D01*
X134942500Y-87627966D02*
X134975833Y-87661300D01*
X134975833Y-87661300D02*
X135042500Y-87694633D01*
X135042500Y-87694633D02*
X135175833Y-87694633D01*
X135175833Y-87694633D02*
X135242500Y-87661300D01*
X135242500Y-87661300D02*
X135275833Y-87627966D01*
X135275833Y-87627966D02*
X135309166Y-87561300D01*
X135309166Y-87561300D02*
X135309166Y-86994633D01*
X135942499Y-87227966D02*
X135942499Y-87694633D01*
X135775833Y-86961300D02*
X135609166Y-87461300D01*
X135609166Y-87461300D02*
X136042499Y-87461300D01*
X163104666Y-86994633D02*
X163104666Y-87561300D01*
X163104666Y-87561300D02*
X163138000Y-87627966D01*
X163138000Y-87627966D02*
X163171333Y-87661300D01*
X163171333Y-87661300D02*
X163238000Y-87694633D01*
X163238000Y-87694633D02*
X163371333Y-87694633D01*
X163371333Y-87694633D02*
X163438000Y-87661300D01*
X163438000Y-87661300D02*
X163471333Y-87627966D01*
X163471333Y-87627966D02*
X163504666Y-87561300D01*
X163504666Y-87561300D02*
X163504666Y-86994633D01*
X163771333Y-86994633D02*
X164204666Y-86994633D01*
X164204666Y-86994633D02*
X163971333Y-87261300D01*
X163971333Y-87261300D02*
X164071333Y-87261300D01*
X164071333Y-87261300D02*
X164137999Y-87294633D01*
X164137999Y-87294633D02*
X164171333Y-87327966D01*
X164171333Y-87327966D02*
X164204666Y-87394633D01*
X164204666Y-87394633D02*
X164204666Y-87561300D01*
X164204666Y-87561300D02*
X164171333Y-87627966D01*
X164171333Y-87627966D02*
X164137999Y-87661300D01*
X164137999Y-87661300D02*
X164071333Y-87694633D01*
X164071333Y-87694633D02*
X163871333Y-87694633D01*
X163871333Y-87694633D02*
X163804666Y-87661300D01*
X163804666Y-87661300D02*
X163771333Y-87627966D01*
X129423333Y-85452633D02*
X129190000Y-85119300D01*
X129023333Y-85452633D02*
X129023333Y-84752633D01*
X129023333Y-84752633D02*
X129290000Y-84752633D01*
X129290000Y-84752633D02*
X129356667Y-84785966D01*
X129356667Y-84785966D02*
X129390000Y-84819300D01*
X129390000Y-84819300D02*
X129423333Y-84885966D01*
X129423333Y-84885966D02*
X129423333Y-84985966D01*
X129423333Y-84985966D02*
X129390000Y-85052633D01*
X129390000Y-85052633D02*
X129356667Y-85085966D01*
X129356667Y-85085966D02*
X129290000Y-85119300D01*
X129290000Y-85119300D02*
X129023333Y-85119300D01*
X130023333Y-84985966D02*
X130023333Y-85452633D01*
X129856667Y-84719300D02*
X129690000Y-85219300D01*
X129690000Y-85219300D02*
X130123333Y-85219300D01*
X129423333Y-83810633D02*
X129190000Y-83477300D01*
X129023333Y-83810633D02*
X129023333Y-83110633D01*
X129023333Y-83110633D02*
X129290000Y-83110633D01*
X129290000Y-83110633D02*
X129356667Y-83143966D01*
X129356667Y-83143966D02*
X129390000Y-83177300D01*
X129390000Y-83177300D02*
X129423333Y-83243966D01*
X129423333Y-83243966D02*
X129423333Y-83343966D01*
X129423333Y-83343966D02*
X129390000Y-83410633D01*
X129390000Y-83410633D02*
X129356667Y-83443966D01*
X129356667Y-83443966D02*
X129290000Y-83477300D01*
X129290000Y-83477300D02*
X129023333Y-83477300D01*
X129656667Y-83110633D02*
X130090000Y-83110633D01*
X130090000Y-83110633D02*
X129856667Y-83377300D01*
X129856667Y-83377300D02*
X129956667Y-83377300D01*
X129956667Y-83377300D02*
X130023333Y-83410633D01*
X130023333Y-83410633D02*
X130056667Y-83443966D01*
X130056667Y-83443966D02*
X130090000Y-83510633D01*
X130090000Y-83510633D02*
X130090000Y-83677300D01*
X130090000Y-83677300D02*
X130056667Y-83743966D01*
X130056667Y-83743966D02*
X130023333Y-83777300D01*
X130023333Y-83777300D02*
X129956667Y-83810633D01*
X129956667Y-83810633D02*
X129756667Y-83810633D01*
X129756667Y-83810633D02*
X129690000Y-83777300D01*
X129690000Y-83777300D02*
X129656667Y-83743966D01*
X155893633Y-77078666D02*
X155560300Y-77311999D01*
X155893633Y-77478666D02*
X155193633Y-77478666D01*
X155193633Y-77478666D02*
X155193633Y-77211999D01*
X155193633Y-77211999D02*
X155226966Y-77145333D01*
X155226966Y-77145333D02*
X155260300Y-77111999D01*
X155260300Y-77111999D02*
X155326966Y-77078666D01*
X155326966Y-77078666D02*
X155426966Y-77078666D01*
X155426966Y-77078666D02*
X155493633Y-77111999D01*
X155493633Y-77111999D02*
X155526966Y-77145333D01*
X155526966Y-77145333D02*
X155560300Y-77211999D01*
X155560300Y-77211999D02*
X155560300Y-77478666D01*
X155893633Y-76745333D02*
X155893633Y-76611999D01*
X155893633Y-76611999D02*
X155860300Y-76545333D01*
X155860300Y-76545333D02*
X155826966Y-76511999D01*
X155826966Y-76511999D02*
X155726966Y-76445333D01*
X155726966Y-76445333D02*
X155593633Y-76411999D01*
X155593633Y-76411999D02*
X155326966Y-76411999D01*
X155326966Y-76411999D02*
X155260300Y-76445333D01*
X155260300Y-76445333D02*
X155226966Y-76478666D01*
X155226966Y-76478666D02*
X155193633Y-76545333D01*
X155193633Y-76545333D02*
X155193633Y-76678666D01*
X155193633Y-76678666D02*
X155226966Y-76745333D01*
X155226966Y-76745333D02*
X155260300Y-76778666D01*
X155260300Y-76778666D02*
X155326966Y-76811999D01*
X155326966Y-76811999D02*
X155493633Y-76811999D01*
X155493633Y-76811999D02*
X155560300Y-76778666D01*
X155560300Y-76778666D02*
X155593633Y-76745333D01*
X155593633Y-76745333D02*
X155626966Y-76678666D01*
X155626966Y-76678666D02*
X155626966Y-76545333D01*
X155626966Y-76545333D02*
X155593633Y-76478666D01*
X155593633Y-76478666D02*
X155560300Y-76445333D01*
X155560300Y-76445333D02*
X155493633Y-76411999D01*
X156082633Y-85750333D02*
X156649300Y-85750333D01*
X156649300Y-85750333D02*
X156715966Y-85717000D01*
X156715966Y-85717000D02*
X156749300Y-85683666D01*
X156749300Y-85683666D02*
X156782633Y-85617000D01*
X156782633Y-85617000D02*
X156782633Y-85483666D01*
X156782633Y-85483666D02*
X156749300Y-85417000D01*
X156749300Y-85417000D02*
X156715966Y-85383666D01*
X156715966Y-85383666D02*
X156649300Y-85350333D01*
X156649300Y-85350333D02*
X156082633Y-85350333D01*
X156149300Y-85050333D02*
X156115966Y-85017000D01*
X156115966Y-85017000D02*
X156082633Y-84950333D01*
X156082633Y-84950333D02*
X156082633Y-84783667D01*
X156082633Y-84783667D02*
X156115966Y-84717000D01*
X156115966Y-84717000D02*
X156149300Y-84683667D01*
X156149300Y-84683667D02*
X156215966Y-84650333D01*
X156215966Y-84650333D02*
X156282633Y-84650333D01*
X156282633Y-84650333D02*
X156382633Y-84683667D01*
X156382633Y-84683667D02*
X156782633Y-85083667D01*
X156782633Y-85083667D02*
X156782633Y-84650333D01*
X154242633Y-77078666D02*
X153909300Y-77311999D01*
X154242633Y-77478666D02*
X153542633Y-77478666D01*
X153542633Y-77478666D02*
X153542633Y-77211999D01*
X153542633Y-77211999D02*
X153575966Y-77145333D01*
X153575966Y-77145333D02*
X153609300Y-77111999D01*
X153609300Y-77111999D02*
X153675966Y-77078666D01*
X153675966Y-77078666D02*
X153775966Y-77078666D01*
X153775966Y-77078666D02*
X153842633Y-77111999D01*
X153842633Y-77111999D02*
X153875966Y-77145333D01*
X153875966Y-77145333D02*
X153909300Y-77211999D01*
X153909300Y-77211999D02*
X153909300Y-77478666D01*
X153842633Y-76678666D02*
X153809300Y-76745333D01*
X153809300Y-76745333D02*
X153775966Y-76778666D01*
X153775966Y-76778666D02*
X153709300Y-76811999D01*
X153709300Y-76811999D02*
X153675966Y-76811999D01*
X153675966Y-76811999D02*
X153609300Y-76778666D01*
X153609300Y-76778666D02*
X153575966Y-76745333D01*
X153575966Y-76745333D02*
X153542633Y-76678666D01*
X153542633Y-76678666D02*
X153542633Y-76545333D01*
X153542633Y-76545333D02*
X153575966Y-76478666D01*
X153575966Y-76478666D02*
X153609300Y-76445333D01*
X153609300Y-76445333D02*
X153675966Y-76411999D01*
X153675966Y-76411999D02*
X153709300Y-76411999D01*
X153709300Y-76411999D02*
X153775966Y-76445333D01*
X153775966Y-76445333D02*
X153809300Y-76478666D01*
X153809300Y-76478666D02*
X153842633Y-76545333D01*
X153842633Y-76545333D02*
X153842633Y-76678666D01*
X153842633Y-76678666D02*
X153875966Y-76745333D01*
X153875966Y-76745333D02*
X153909300Y-76778666D01*
X153909300Y-76778666D02*
X153975966Y-76811999D01*
X153975966Y-76811999D02*
X154109300Y-76811999D01*
X154109300Y-76811999D02*
X154175966Y-76778666D01*
X154175966Y-76778666D02*
X154209300Y-76745333D01*
X154209300Y-76745333D02*
X154242633Y-76678666D01*
X154242633Y-76678666D02*
X154242633Y-76545333D01*
X154242633Y-76545333D02*
X154209300Y-76478666D01*
X154209300Y-76478666D02*
X154175966Y-76445333D01*
X154175966Y-76445333D02*
X154109300Y-76411999D01*
X154109300Y-76411999D02*
X153975966Y-76411999D01*
X153975966Y-76411999D02*
X153909300Y-76445333D01*
X153909300Y-76445333D02*
X153875966Y-76478666D01*
X153875966Y-76478666D02*
X153842633Y-76545333D01*
X152591633Y-77078666D02*
X152258300Y-77311999D01*
X152591633Y-77478666D02*
X151891633Y-77478666D01*
X151891633Y-77478666D02*
X151891633Y-77211999D01*
X151891633Y-77211999D02*
X151924966Y-77145333D01*
X151924966Y-77145333D02*
X151958300Y-77111999D01*
X151958300Y-77111999D02*
X152024966Y-77078666D01*
X152024966Y-77078666D02*
X152124966Y-77078666D01*
X152124966Y-77078666D02*
X152191633Y-77111999D01*
X152191633Y-77111999D02*
X152224966Y-77145333D01*
X152224966Y-77145333D02*
X152258300Y-77211999D01*
X152258300Y-77211999D02*
X152258300Y-77478666D01*
X151891633Y-76845333D02*
X151891633Y-76378666D01*
X151891633Y-76378666D02*
X152591633Y-76678666D01*
X125349133Y-94985666D02*
X125015800Y-95218999D01*
X125349133Y-95385666D02*
X124649133Y-95385666D01*
X124649133Y-95385666D02*
X124649133Y-95118999D01*
X124649133Y-95118999D02*
X124682466Y-95052333D01*
X124682466Y-95052333D02*
X124715800Y-95018999D01*
X124715800Y-95018999D02*
X124782466Y-94985666D01*
X124782466Y-94985666D02*
X124882466Y-94985666D01*
X124882466Y-94985666D02*
X124949133Y-95018999D01*
X124949133Y-95018999D02*
X124982466Y-95052333D01*
X124982466Y-95052333D02*
X125015800Y-95118999D01*
X125015800Y-95118999D02*
X125015800Y-95385666D01*
X125349133Y-94318999D02*
X125349133Y-94718999D01*
X125349133Y-94518999D02*
X124649133Y-94518999D01*
X124649133Y-94518999D02*
X124749133Y-94585666D01*
X124749133Y-94585666D02*
X124815800Y-94652333D01*
X124815800Y-94652333D02*
X124849133Y-94718999D01*
X159903333Y-79245966D02*
X159870000Y-79279300D01*
X159870000Y-79279300D02*
X159770000Y-79312633D01*
X159770000Y-79312633D02*
X159703333Y-79312633D01*
X159703333Y-79312633D02*
X159603333Y-79279300D01*
X159603333Y-79279300D02*
X159536667Y-79212633D01*
X159536667Y-79212633D02*
X159503333Y-79145966D01*
X159503333Y-79145966D02*
X159470000Y-79012633D01*
X159470000Y-79012633D02*
X159470000Y-78912633D01*
X159470000Y-78912633D02*
X159503333Y-78779300D01*
X159503333Y-78779300D02*
X159536667Y-78712633D01*
X159536667Y-78712633D02*
X159603333Y-78645966D01*
X159603333Y-78645966D02*
X159703333Y-78612633D01*
X159703333Y-78612633D02*
X159770000Y-78612633D01*
X159770000Y-78612633D02*
X159870000Y-78645966D01*
X159870000Y-78645966D02*
X159903333Y-78679300D01*
X160503333Y-78845966D02*
X160503333Y-79312633D01*
X160336667Y-78579300D02*
X160170000Y-79079300D01*
X160170000Y-79079300D02*
X160603333Y-79079300D01*
X138948333Y-79245966D02*
X138915000Y-79279300D01*
X138915000Y-79279300D02*
X138815000Y-79312633D01*
X138815000Y-79312633D02*
X138748333Y-79312633D01*
X138748333Y-79312633D02*
X138648333Y-79279300D01*
X138648333Y-79279300D02*
X138581667Y-79212633D01*
X138581667Y-79212633D02*
X138548333Y-79145966D01*
X138548333Y-79145966D02*
X138515000Y-79012633D01*
X138515000Y-79012633D02*
X138515000Y-78912633D01*
X138515000Y-78912633D02*
X138548333Y-78779300D01*
X138548333Y-78779300D02*
X138581667Y-78712633D01*
X138581667Y-78712633D02*
X138648333Y-78645966D01*
X138648333Y-78645966D02*
X138748333Y-78612633D01*
X138748333Y-78612633D02*
X138815000Y-78612633D01*
X138815000Y-78612633D02*
X138915000Y-78645966D01*
X138915000Y-78645966D02*
X138948333Y-78679300D01*
X139215000Y-78679300D02*
X139248333Y-78645966D01*
X139248333Y-78645966D02*
X139315000Y-78612633D01*
X139315000Y-78612633D02*
X139481667Y-78612633D01*
X139481667Y-78612633D02*
X139548333Y-78645966D01*
X139548333Y-78645966D02*
X139581667Y-78679300D01*
X139581667Y-78679300D02*
X139615000Y-78745966D01*
X139615000Y-78745966D02*
X139615000Y-78812633D01*
X139615000Y-78812633D02*
X139581667Y-78912633D01*
X139581667Y-78912633D02*
X139181667Y-79312633D01*
X139181667Y-79312633D02*
X139615000Y-79312633D01*
X147571966Y-77078666D02*
X147605300Y-77111999D01*
X147605300Y-77111999D02*
X147638633Y-77211999D01*
X147638633Y-77211999D02*
X147638633Y-77278666D01*
X147638633Y-77278666D02*
X147605300Y-77378666D01*
X147605300Y-77378666D02*
X147538633Y-77445333D01*
X147538633Y-77445333D02*
X147471966Y-77478666D01*
X147471966Y-77478666D02*
X147338633Y-77511999D01*
X147338633Y-77511999D02*
X147238633Y-77511999D01*
X147238633Y-77511999D02*
X147105300Y-77478666D01*
X147105300Y-77478666D02*
X147038633Y-77445333D01*
X147038633Y-77445333D02*
X146971966Y-77378666D01*
X146971966Y-77378666D02*
X146938633Y-77278666D01*
X146938633Y-77278666D02*
X146938633Y-77211999D01*
X146938633Y-77211999D02*
X146971966Y-77111999D01*
X146971966Y-77111999D02*
X147005300Y-77078666D01*
X146938633Y-76845333D02*
X146938633Y-76411999D01*
X146938633Y-76411999D02*
X147205300Y-76645333D01*
X147205300Y-76645333D02*
X147205300Y-76545333D01*
X147205300Y-76545333D02*
X147238633Y-76478666D01*
X147238633Y-76478666D02*
X147271966Y-76445333D01*
X147271966Y-76445333D02*
X147338633Y-76411999D01*
X147338633Y-76411999D02*
X147505300Y-76411999D01*
X147505300Y-76411999D02*
X147571966Y-76445333D01*
X147571966Y-76445333D02*
X147605300Y-76478666D01*
X147605300Y-76478666D02*
X147638633Y-76545333D01*
X147638633Y-76545333D02*
X147638633Y-76745333D01*
X147638633Y-76745333D02*
X147605300Y-76811999D01*
X147605300Y-76811999D02*
X147571966Y-76845333D01*
X123825133Y-95385666D02*
X123125133Y-95385666D01*
X123125133Y-95385666D02*
X123125133Y-95218999D01*
X123125133Y-95218999D02*
X123158466Y-95118999D01*
X123158466Y-95118999D02*
X123225133Y-95052333D01*
X123225133Y-95052333D02*
X123291800Y-95018999D01*
X123291800Y-95018999D02*
X123425133Y-94985666D01*
X123425133Y-94985666D02*
X123525133Y-94985666D01*
X123525133Y-94985666D02*
X123658466Y-95018999D01*
X123658466Y-95018999D02*
X123725133Y-95052333D01*
X123725133Y-95052333D02*
X123791800Y-95118999D01*
X123791800Y-95118999D02*
X123825133Y-95218999D01*
X123825133Y-95218999D02*
X123825133Y-95385666D01*
X123825133Y-94318999D02*
X123825133Y-94718999D01*
X123825133Y-94518999D02*
X123125133Y-94518999D01*
X123125133Y-94518999D02*
X123225133Y-94585666D01*
X123225133Y-94585666D02*
X123291800Y-94652333D01*
X123291800Y-94652333D02*
X123325133Y-94718999D01*
X129423333Y-82129633D02*
X129190000Y-81796300D01*
X129023333Y-82129633D02*
X129023333Y-81429633D01*
X129023333Y-81429633D02*
X129290000Y-81429633D01*
X129290000Y-81429633D02*
X129356667Y-81462966D01*
X129356667Y-81462966D02*
X129390000Y-81496300D01*
X129390000Y-81496300D02*
X129423333Y-81562966D01*
X129423333Y-81562966D02*
X129423333Y-81662966D01*
X129423333Y-81662966D02*
X129390000Y-81729633D01*
X129390000Y-81729633D02*
X129356667Y-81762966D01*
X129356667Y-81762966D02*
X129290000Y-81796300D01*
X129290000Y-81796300D02*
X129023333Y-81796300D01*
X129690000Y-81496300D02*
X129723333Y-81462966D01*
X129723333Y-81462966D02*
X129790000Y-81429633D01*
X129790000Y-81429633D02*
X129956667Y-81429633D01*
X129956667Y-81429633D02*
X130023333Y-81462966D01*
X130023333Y-81462966D02*
X130056667Y-81496300D01*
X130056667Y-81496300D02*
X130090000Y-81562966D01*
X130090000Y-81562966D02*
X130090000Y-81629633D01*
X130090000Y-81629633D02*
X130056667Y-81729633D01*
X130056667Y-81729633D02*
X129656667Y-82129633D01*
X129656667Y-82129633D02*
X130090000Y-82129633D01*
X131582333Y-79245966D02*
X131549000Y-79279300D01*
X131549000Y-79279300D02*
X131449000Y-79312633D01*
X131449000Y-79312633D02*
X131382333Y-79312633D01*
X131382333Y-79312633D02*
X131282333Y-79279300D01*
X131282333Y-79279300D02*
X131215667Y-79212633D01*
X131215667Y-79212633D02*
X131182333Y-79145966D01*
X131182333Y-79145966D02*
X131149000Y-79012633D01*
X131149000Y-79012633D02*
X131149000Y-78912633D01*
X131149000Y-78912633D02*
X131182333Y-78779300D01*
X131182333Y-78779300D02*
X131215667Y-78712633D01*
X131215667Y-78712633D02*
X131282333Y-78645966D01*
X131282333Y-78645966D02*
X131382333Y-78612633D01*
X131382333Y-78612633D02*
X131449000Y-78612633D01*
X131449000Y-78612633D02*
X131549000Y-78645966D01*
X131549000Y-78645966D02*
X131582333Y-78679300D01*
X132249000Y-79312633D02*
X131849000Y-79312633D01*
X132049000Y-79312633D02*
X132049000Y-78612633D01*
X132049000Y-78612633D02*
X131982333Y-78712633D01*
X131982333Y-78712633D02*
X131915667Y-78779300D01*
X131915667Y-78779300D02*
X131849000Y-78812633D01*
X167142333Y-79245966D02*
X167109000Y-79279300D01*
X167109000Y-79279300D02*
X167009000Y-79312633D01*
X167009000Y-79312633D02*
X166942333Y-79312633D01*
X166942333Y-79312633D02*
X166842333Y-79279300D01*
X166842333Y-79279300D02*
X166775667Y-79212633D01*
X166775667Y-79212633D02*
X166742333Y-79145966D01*
X166742333Y-79145966D02*
X166709000Y-79012633D01*
X166709000Y-79012633D02*
X166709000Y-78912633D01*
X166709000Y-78912633D02*
X166742333Y-78779300D01*
X166742333Y-78779300D02*
X166775667Y-78712633D01*
X166775667Y-78712633D02*
X166842333Y-78645966D01*
X166842333Y-78645966D02*
X166942333Y-78612633D01*
X166942333Y-78612633D02*
X167009000Y-78612633D01*
X167009000Y-78612633D02*
X167109000Y-78645966D01*
X167109000Y-78645966D02*
X167142333Y-78679300D01*
X167775667Y-78612633D02*
X167442333Y-78612633D01*
X167442333Y-78612633D02*
X167409000Y-78945966D01*
X167409000Y-78945966D02*
X167442333Y-78912633D01*
X167442333Y-78912633D02*
X167509000Y-78879300D01*
X167509000Y-78879300D02*
X167675667Y-78879300D01*
X167675667Y-78879300D02*
X167742333Y-78912633D01*
X167742333Y-78912633D02*
X167775667Y-78945966D01*
X167775667Y-78945966D02*
X167809000Y-79012633D01*
X167809000Y-79012633D02*
X167809000Y-79179300D01*
X167809000Y-79179300D02*
X167775667Y-79245966D01*
X167775667Y-79245966D02*
X167742333Y-79279300D01*
X167742333Y-79279300D02*
X167675667Y-79312633D01*
X167675667Y-79312633D02*
X167509000Y-79312633D01*
X167509000Y-79312633D02*
X167442333Y-79279300D01*
X167442333Y-79279300D02*
X167409000Y-79245966D01*
X150940633Y-77078666D02*
X150607300Y-77311999D01*
X150940633Y-77478666D02*
X150240633Y-77478666D01*
X150240633Y-77478666D02*
X150240633Y-77211999D01*
X150240633Y-77211999D02*
X150273966Y-77145333D01*
X150273966Y-77145333D02*
X150307300Y-77111999D01*
X150307300Y-77111999D02*
X150373966Y-77078666D01*
X150373966Y-77078666D02*
X150473966Y-77078666D01*
X150473966Y-77078666D02*
X150540633Y-77111999D01*
X150540633Y-77111999D02*
X150573966Y-77145333D01*
X150573966Y-77145333D02*
X150607300Y-77211999D01*
X150607300Y-77211999D02*
X150607300Y-77478666D01*
X150240633Y-76478666D02*
X150240633Y-76611999D01*
X150240633Y-76611999D02*
X150273966Y-76678666D01*
X150273966Y-76678666D02*
X150307300Y-76711999D01*
X150307300Y-76711999D02*
X150407300Y-76778666D01*
X150407300Y-76778666D02*
X150540633Y-76811999D01*
X150540633Y-76811999D02*
X150807300Y-76811999D01*
X150807300Y-76811999D02*
X150873966Y-76778666D01*
X150873966Y-76778666D02*
X150907300Y-76745333D01*
X150907300Y-76745333D02*
X150940633Y-76678666D01*
X150940633Y-76678666D02*
X150940633Y-76545333D01*
X150940633Y-76545333D02*
X150907300Y-76478666D01*
X150907300Y-76478666D02*
X150873966Y-76445333D01*
X150873966Y-76445333D02*
X150807300Y-76411999D01*
X150807300Y-76411999D02*
X150640633Y-76411999D01*
X150640633Y-76411999D02*
X150573966Y-76445333D01*
X150573966Y-76445333D02*
X150540633Y-76478666D01*
X150540633Y-76478666D02*
X150507300Y-76545333D01*
X150507300Y-76545333D02*
X150507300Y-76678666D01*
X150507300Y-76678666D02*
X150540633Y-76745333D01*
X150540633Y-76745333D02*
X150573966Y-76778666D01*
X150573966Y-76778666D02*
X150640633Y-76811999D01*
X149289633Y-77078666D02*
X148956300Y-77311999D01*
X149289633Y-77478666D02*
X148589633Y-77478666D01*
X148589633Y-77478666D02*
X148589633Y-77211999D01*
X148589633Y-77211999D02*
X148622966Y-77145333D01*
X148622966Y-77145333D02*
X148656300Y-77111999D01*
X148656300Y-77111999D02*
X148722966Y-77078666D01*
X148722966Y-77078666D02*
X148822966Y-77078666D01*
X148822966Y-77078666D02*
X148889633Y-77111999D01*
X148889633Y-77111999D02*
X148922966Y-77145333D01*
X148922966Y-77145333D02*
X148956300Y-77211999D01*
X148956300Y-77211999D02*
X148956300Y-77478666D01*
X148589633Y-76445333D02*
X148589633Y-76778666D01*
X148589633Y-76778666D02*
X148922966Y-76811999D01*
X148922966Y-76811999D02*
X148889633Y-76778666D01*
X148889633Y-76778666D02*
X148856300Y-76711999D01*
X148856300Y-76711999D02*
X148856300Y-76545333D01*
X148856300Y-76545333D02*
X148889633Y-76478666D01*
X148889633Y-76478666D02*
X148922966Y-76445333D01*
X148922966Y-76445333D02*
X148989633Y-76411999D01*
X148989633Y-76411999D02*
X149156300Y-76411999D01*
X149156300Y-76411999D02*
X149222966Y-76445333D01*
X149222966Y-76445333D02*
X149256300Y-76478666D01*
X149256300Y-76478666D02*
X149289633Y-76545333D01*
X149289633Y-76545333D02*
X149289633Y-76711999D01*
X149289633Y-76711999D02*
X149256300Y-76778666D01*
X149256300Y-76778666D02*
X149222966Y-76811999D01*
D12*
%TO.C,U4*%
X135442500Y-79927000D02*
X133242500Y-79927000D01*
X135442500Y-79927000D02*
X137642500Y-79927000D01*
X135442500Y-86697000D02*
X133242500Y-86697000D01*
X135442500Y-86697000D02*
X137642500Y-86697000D01*
X131582500Y-80387000D02*
X131252500Y-80627000D01*
X131252500Y-80147000D01*
X131582500Y-80387000D01*
G36*
X131582500Y-80387000D02*
G01*
X131252500Y-80627000D01*
X131252500Y-80147000D01*
X131582500Y-80387000D01*
G37*
%TO.C,U3*%
X163638000Y-79927000D02*
X161438000Y-79927000D01*
X163638000Y-79927000D02*
X165838000Y-79927000D01*
X163638000Y-86697000D02*
X161438000Y-86697000D01*
X163638000Y-86697000D02*
X165838000Y-86697000D01*
X159778000Y-80387000D02*
X159448000Y-80627000D01*
X159448000Y-80147000D01*
X159778000Y-80387000D01*
G36*
X159778000Y-80387000D02*
G01*
X159448000Y-80627000D01*
X159448000Y-80147000D01*
X159778000Y-80387000D01*
G37*
%TO.C,R4*%
X127485224Y-84567500D02*
X126975776Y-84567500D01*
X127485224Y-85612500D02*
X126975776Y-85612500D01*
%TO.C,J6*%
X126305000Y-94529600D02*
X126305000Y-99729600D01*
X161925000Y-94529600D02*
X126305000Y-94529600D01*
X161925000Y-94529600D02*
X161925000Y-97129600D01*
X161925000Y-97129600D02*
X164525000Y-97129600D01*
X163195000Y-94529600D02*
X164525000Y-94529600D01*
X164525000Y-94529600D02*
X164525000Y-95859600D01*
X164525000Y-97129600D02*
X164525000Y-99729600D01*
X164525000Y-99729600D02*
X126305000Y-99729600D01*
%TO.C,R3*%
X126975776Y-82916500D02*
X127485224Y-82916500D01*
X126975776Y-83961500D02*
X127485224Y-83961500D01*
%TO.C,R9*%
X155052500Y-79502724D02*
X155052500Y-78993276D01*
X156097500Y-79502724D02*
X156097500Y-78993276D01*
%TO.C,U2*%
X146949000Y-85217000D02*
X146949000Y-83267000D01*
X146949000Y-85217000D02*
X146949000Y-87167000D01*
X155819000Y-85217000D02*
X155819000Y-83267000D01*
X155819000Y-85217000D02*
X155819000Y-87167000D01*
X147014000Y-87917000D02*
X146684000Y-88157000D01*
X146684000Y-87677000D01*
X147014000Y-87917000D01*
G36*
X147014000Y-87917000D02*
G01*
X146684000Y-88157000D01*
X146684000Y-87677000D01*
X147014000Y-87917000D01*
G37*
%TO.C,R8*%
X153401500Y-79502724D02*
X153401500Y-78993276D01*
X154446500Y-79502724D02*
X154446500Y-78993276D01*
%TO.C,J5*%
X165675000Y-94529600D02*
X165675000Y-99729600D01*
X188595000Y-94529600D02*
X165675000Y-94529600D01*
X188595000Y-94529600D02*
X188595000Y-97129600D01*
X188595000Y-97129600D02*
X191195000Y-97129600D01*
X189865000Y-94529600D02*
X191195000Y-94529600D01*
X191195000Y-94529600D02*
X191195000Y-95859600D01*
X191195000Y-97129600D02*
X191195000Y-99729600D01*
X191195000Y-99729600D02*
X165675000Y-99729600D01*
%TO.C,R7*%
X151750500Y-79502724D02*
X151750500Y-78993276D01*
X152795500Y-79502724D02*
X152795500Y-78993276D01*
%TO.C,R1*%
X124508000Y-96900276D02*
X124508000Y-97409724D01*
X125553000Y-96900276D02*
X125553000Y-97409724D01*
D11*
%TO.C,J4*%
X172795000Y-72812000D02*
X172795000Y-93812000D01*
X189195000Y-83312000D02*
X189195000Y-72812000D01*
X189195000Y-83312000D02*
X189195000Y-93812000D01*
X191695000Y-72812000D02*
X172795000Y-72812000D01*
X191695000Y-83312000D02*
X191695000Y-72812000D01*
X191695000Y-83312000D02*
X191695000Y-93812000D01*
X191695000Y-93812000D02*
X172795000Y-93812000D01*
D12*
%TO.C,C4*%
X161973420Y-78484000D02*
X162254580Y-78484000D01*
X161973420Y-79504000D02*
X162254580Y-79504000D01*
%TO.C,C2*%
X137107080Y-78484000D02*
X136825920Y-78484000D01*
X137107080Y-79504000D02*
X136825920Y-79504000D01*
%TO.C,C3*%
X146810000Y-79365080D02*
X146810000Y-79083920D01*
X147830000Y-79365080D02*
X147830000Y-79083920D01*
%TO.C,D1*%
X122771500Y-95670000D02*
X122771500Y-97955000D01*
X124241500Y-95670000D02*
X122771500Y-95670000D01*
X124241500Y-97955000D02*
X124241500Y-95670000D01*
%TO.C,R2*%
X126975776Y-81265500D02*
X127485224Y-81265500D01*
X126975776Y-82310500D02*
X127485224Y-82310500D01*
%TO.C,C1*%
X133777920Y-78484000D02*
X134059080Y-78484000D01*
X133777920Y-79504000D02*
X134059080Y-79504000D01*
%TO.C,C5*%
X165302580Y-78484000D02*
X165021420Y-78484000D01*
X165302580Y-79504000D02*
X165021420Y-79504000D01*
%TO.C,R6*%
X150099500Y-79502724D02*
X150099500Y-78993276D01*
X151144500Y-79502724D02*
X151144500Y-78993276D01*
%TO.C,R5*%
X148448500Y-79502724D02*
X148448500Y-78993276D01*
X149493500Y-79502724D02*
X149493500Y-78993276D01*
%TD*%
M02*
