M48
METRIC,TZ
T1C0.300
T2C1.000
T3C1.400
%
G90
G05
T1
X125222Y-83439
X126318Y-86059
X126746Y-88392
X127254Y-77216
X128143Y-86106
X132207Y-78105
X133731Y-86233
X135509Y-80010
X135611Y-88011
X136779Y-80264
X138811Y-86995
X139446Y-81636
X139446Y-82296
X139446Y-82956
X139446Y-83617
X139446Y-84277
X139446Y-84938
X139446Y-85598
X139449Y-80975
X139954Y-88646
X142646Y-88519
X143129Y-88068
X143612Y-88519
X145015Y-90420
X146304Y-78359
X146356Y-80000
X147203Y-85461
X148096Y-85750
X149098Y-91059
X149419Y-85284
X149483Y-93349
X150393Y-85750
X151384Y-85750
X151417Y-90786
X152019Y-91059
X152019Y-93345
X152678Y-85141
X153924Y-85725
X154686Y-93091
X155101Y-84531
X157099Y-93091
X157480Y-89484
X159639Y-93091
X161922Y-86500
X161925Y-80391
X162052Y-85852
X162179Y-93091
X162306Y-88392
X162948Y-80823
X162966Y-88392
X163627Y-88392
X163703Y-77851
X164287Y-88392
X164332Y-83007
X164592Y-93091
X164837Y-80636
X164948Y-88392
X164973Y-83312
X165348Y-82337
X165354Y-81661
X166497Y-86868
X167640Y-86070
X167759Y-80992
X168021Y-83058
X168021Y-84150
X168234Y-85750
X168529Y-80979
X168576Y-82248
X168931Y-85083
X169323Y-81630
X169683Y-84469
X171323Y-80386
X172339Y-89452
X172713Y-90113
X173494Y-90463
X174034Y-90843
X174339Y-91456
X174822Y-91956
X175412Y-92329
X175641Y-80919
X175895Y-92815
X176008Y-91346
X176256Y-83312
X176521Y-91765
X177029Y-91342
X177487Y-91871
X178086Y-92149
X178711Y-92362
X179248Y-92844
X179988Y-93299
X180770Y-93013
X184404Y-88646
T2
X122816Y-74415
X122816Y-92195
X125356Y-74415
X125356Y-92195
X127635Y-95860
X127635Y-98400
X127896Y-74415
X127896Y-92195
X130175Y-95860
X130175Y-98400
X130436Y-74415
X130436Y-92195
X132715Y-95860
X132715Y-98400
X132976Y-74415
X132976Y-92195
X135255Y-95860
X135255Y-98400
X135516Y-74415
X135516Y-92195
X137795Y-95860
X137795Y-98400
X138056Y-74415
X138056Y-92195
X140335Y-95860
X140335Y-98400
X140596Y-74415
X140596Y-92195
X142875Y-95860
X142875Y-98400
X143136Y-74415
X143136Y-92195
X145415Y-95860
X145415Y-98400
X145676Y-74415
X145676Y-92195
X147955Y-95860
X147955Y-98400
X148216Y-74415
X148216Y-92195
X150495Y-95860
X150495Y-98400
X150756Y-74415
X150756Y-92195
X153035Y-95860
X153035Y-98400
X153296Y-74415
X153296Y-92195
X155575Y-95860
X155575Y-98400
X155836Y-74415
X155836Y-92195
X158115Y-95860
X158115Y-98400
X158376Y-74415
X158376Y-92195
X160655Y-95860
X160655Y-98400
X160916Y-74415
X160916Y-92195
X163195Y-95860
X163195Y-98400
X163456Y-74415
X163456Y-92195
X165996Y-74415
X165996Y-92195
X167005Y-95860
X167005Y-98400
X168536Y-74415
X168536Y-92195
X169545Y-95860
X169545Y-98400
X171076Y-74415
X171076Y-92195
X172085Y-95860
X172085Y-98400
X174625Y-95860
X174625Y-98400
X177165Y-95860
X177165Y-98400
X179705Y-95860
X179705Y-98400
X182245Y-95860
X182245Y-98400
X184785Y-95860
X184785Y-98400
X187325Y-95860
X187325Y-98400
X189865Y-95860
X189865Y-98400
T3
X174295Y-83312
X176795Y-78312
X176795Y-88312
X179295Y-75812
X179295Y-83312
X179295Y-90812
X189195Y-78312
X189195Y-88312
M30
